<svg width="420" height="560" viewBox="0 0 420 560" fill="none" xmlns="http://www.w3.org/2000/svg">
  <rect width="420" height="560" rx="32" fill="#0E1235"/>
  <rect x="18" y="18" width="384" height="524" rx="24" stroke="#F5D88F" stroke-opacity="0.35" stroke-width="2"/>
  <rect x="40" y="40" width="340" height="480" rx="20" fill="url(#bg)"/>
  <circle cx="210" cy="158" r="72" fill="#8CE9FF" fill-opacity="0.14"/>
  <path d="M210 116L225 154H266L233 177L246 216L210 192L174 216L187 177L154 154H195L210 116Z" fill="#FFE9A6"/>
  <path d="M130 386C173 338 247 338 290 386" stroke="#BFEFFF" stroke-width="8" stroke-linecap="round"/>
  <circle cx="158" cy="286" r="14" fill="#FFE9A6"/>
  <circle cx="262" cy="308" r="18" fill="#B8A8FF"/>
  <circle cx="217" cy="350" r="12" fill="#8CE9FF"/>
  <text x="210" y="476" text-anchor="middle" fill="#F8F2DE" font-size="36" font-family="Georgia, serif">The Fool</text>
  <defs>
    <linearGradient id="bg" x1="210" y1="40" x2="210" y2="520" gradientUnits="userSpaceOnUse">
      <stop stop-color="#26326D"/>
      <stop offset="1" stop-color="#10142E"/>
    </linearGradient>
  </defs>
</svg>
