<svg width="420" height="560" viewBox="0 0 420 560" fill="none" xmlns="http://www.w3.org/2000/svg">
  <rect width="420" height="560" rx="32" fill="#0E1437"/>
  <rect x="18" y="18" width="384" height="524" rx="24" stroke="#C2F4FF" stroke-opacity="0.45" stroke-width="2"/>
  <rect x="40" y="40" width="340" height="480" rx="20" fill="url(#bg)"/>
  <circle cx="210" cy="176" r="84" fill="#8CE9FF" fill-opacity="0.14"/>
  <path d="M210 108L222 152H266L229 178L244 222L210 197L176 222L191 178L154 152H198L210 108Z" fill="#FFF1B6"/>
  <path d="M142 262L153 294H186L159 314L169 346L142 326L115 346L125 314L98 294H131L142 262Z" fill="#BFEFFF"/>
  <path d="M278 270L289 302H322L295 322L305 354L278 334L251 354L261 322L234 302H267L278 270Z" fill="#D2CCFF"/>
  <path d="M152 408H268" stroke="#BFEFFF" stroke-width="8" stroke-linecap="round"/>
  <text x="210" y="476" text-anchor="middle" fill="#F8F2DE" font-size="36" font-family="Georgia, serif">The Star</text>
  <defs>
    <linearGradient id="bg" x1="210" y1="40" x2="210" y2="520" gradientUnits="userSpaceOnUse">
      <stop stop-color="#203875"/>
      <stop offset="1" stop-color="#0F132D"/>
    </linearGradient>
  </defs>
</svg>
