<svg width="420" height="560" viewBox="0 0 420 560" fill="none" xmlns="http://www.w3.org/2000/svg">
  <rect width="420" height="560" rx="32" fill="#271532"/>
  <rect x="18" y="18" width="384" height="524" rx="24" stroke="#FFD38C" stroke-opacity="0.45" stroke-width="2"/>
  <rect x="40" y="40" width="340" height="480" rx="20" fill="url(#bg)"/>
  <circle cx="210" cy="180" r="62" fill="#FFE18B"/>
  <path d="M210 86V124" stroke="#FFE18B" stroke-width="8" stroke-linecap="round"/>
  <path d="M210 236V274" stroke="#FFE18B" stroke-width="8" stroke-linecap="round"/>
  <path d="M302 180H340" stroke="#FFE18B" stroke-width="8" stroke-linecap="round"/>
  <path d="M80 180H118" stroke="#FFE18B" stroke-width="8" stroke-linecap="round"/>
  <path d="M274.953 115.047L301.823 88.1768" stroke="#FFE18B" stroke-width="8" stroke-linecap="round"/>
  <path d="M118.177 271.823L145.047 244.953" stroke="#FFE18B" stroke-width="8" stroke-linecap="round"/>
  <path d="M274.953 244.953L301.823 271.823" stroke="#FFE18B" stroke-width="8" stroke-linecap="round"/>
  <path d="M118.177 88.1768L145.047 115.047" stroke="#FFE18B" stroke-width="8" stroke-linecap="round"/>
  <path d="M132 370C167 334 253 334 288 370" stroke="#FFF0B8" stroke-width="8" stroke-linecap="round"/>
  <text x="210" y="476" text-anchor="middle" fill="#F8F2DE" font-size="36" font-family="Georgia, serif">The Sun</text>
  <defs>
    <linearGradient id="bg" x1="210" y1="40" x2="210" y2="520" gradientUnits="userSpaceOnUse">
      <stop stop-color="#7A3352"/>
      <stop offset="1" stop-color="#2A1528"/>
    </linearGradient>
  </defs>
</svg>
